# xmcd
#
# Track frame offsets: 
#        183
#        8088
#        15998
#        28193
#        39280
#        50795
#        60668
#        71095
#        79330
#        91268
#        109150
#        137590
#        149588
#        160098
#        175930
#        196565
#
# Disc length: 2932 seconds
#
# Revision: 3
# Processed by: cddbd v1.5.2PL0 Copyright (c) Steve Scherf et al.
# Submitted via: ExactAudioCopyFreeDBPlugin 1.0
#
DISCID=d00b7210
DTITLE=Various Artist - Soul
DYEAR=1900
DGENRE=Soul
TTITLE0=James Brown - Please, Please, Please
TTITLE1=Eddie Floyd - Knock on Wood
TTITLE2=Wilbert Harrison - Let´s Stick Together
TTITLE3=Lloyd Price - I´m Gonna Get Married
TTITLE4=The Del Vikings - Come go With Me
TTITLE5=Gladys Knight and The Pips - Operator
TTITLE6=Joe Simon - When I´m Gone
TTITLE7=Sly and The Family Stone - Ain´t That Loving You Baby
TTITLE8=Sam Cooke - Everybody Loves to Cha Cha Cha
TTITLE9=Percy Sledge - When a Man Loves a Woman
TTITLE10=Billy Ocean - On The Run (The Battle is Over)
TTITLE11=Sam and Dave - Hold on I´m Coming
TTITLE12=Rufus Thomas - Walking The Dog
TTITLE13=The Tymes - Miss Grace
TTITLE14=Relief - We Are The World
TTITLE15=Donna Summer - Funstreet
EXTD=
EXTT0=
EXTT1=
EXTT2=
EXTT3=
EXTT4=
EXTT5=
EXTT6=
EXTT7=
EXTT8=
EXTT9=
EXTT10=
EXTT11=
EXTT12=
EXTT13=
EXTT14=
EXTT15=
PLAYORDER=
